<?xml version="1.0" encoding="UTF-8" standalone="no"?>
<!-- Created with Inkscape (http://www.inkscape.org/) -->

<svg
   xmlns:dc="http://purl.org/dc/elements/1.1/"
   xmlns:cc="http://creativecommons.org/ns#"
   xmlns:rdf="http://www.w3.org/1999/02/22-rdf-syntax-ns#"
   xmlns:svg="http://www.w3.org/2000/svg"
   xmlns="http://www.w3.org/2000/svg"
   xmlns:sodipodi="http://sodipodi.sourceforge.net/DTD/sodipodi-0.dtd"
   xmlns:inkscape="http://www.inkscape.org/namespaces/inkscape"
   version="1.1"
   id="svg2"
   width="1656"
   height="213"
   viewBox="0 0 1656 213"
   sodipodi:docname="interface_MIC_1.svg"
   inkscape:version="0.92.2 2405546, 2018-03-11"
   inkscape:export-filename="/home/jeroen/svg/image/kd_h700.png.png"
   inkscape:export-xdpi="96"
   inkscape:export-ydpi="96">
  <metadata
     id="metadata14">
    <rdf:RDF>
      <cc:Work
         rdf:about="">
        <dc:format>image/svg+xml</dc:format>
        <dc:type
           rdf:resource="http://purl.org/dc/dcmitype/StillImage" />
      </cc:Work>
    </rdf:RDF>
  </metadata>
  <defs
     id="defs12" />
  <sodipodi:namedview
     pagecolor="#ffffff"
     bordercolor="#666666"
     borderopacity="1"
     objecttolerance="10"
     gridtolerance="10"
     guidetolerance="10"
     inkscape:pageopacity="0"
     inkscape:pageshadow="2"
     inkscape:window-width="1680"
     inkscape:window-height="1050"
     id="namedview10"
     showgrid="false"
     inkscape:zoom="2.1352657"
     inkscape:cx="233.54644"
     inkscape:cy="51.915892"
     inkscape:window-x="0"
     inkscape:window-y="900"
     inkscape:window-maximized="0"
     inkscape:current-layer="layer4" />
  <g
     inkscape:groupmode="layer"
     id="layer4"
     inkscape:label="接口"
     style="display:inline;opacity:1">
    <path
       style="fill:none;stroke:#000000;stroke-width:1px;stroke-linecap:butt;stroke-linejoin:miter;stroke-opacity:1"
       d="m 282.29029,57.215536 11.04854,11.324758 h 18.64442 l 11.46286,-11.324758 -0.27621,-9.253155 -10.63423,-6.214805 -20.57791,-0.414321 -9.94369,5.248058 0.69054,11.186651 z"
       id="path1509"
       inkscape:connector-curvature="0" />
    <path
       style="fill:none;stroke:#000000;stroke-width:1px;stroke-linecap:butt;stroke-linejoin:miter;stroke-opacity:1"
       d="m 282.70461,57.767964 0.41432,7.457767 -9.25316,5.109951 -8.42451,8.010194 -6.35291,9.529369 -3.03835,9.391262 -0.82864,4.281313 v 9.94369 l 0.69053,7.87208 2.62403,8.70073 4.1432,7.31966 5.66238,6.49102 8.97694,7.18155 11.87719,4.28132 12.01529,1.65728 15.46796,-1.51918 10.08179,-5.24806 9.39127,-6.76723 5.52427,-9.25315 4.28131,-7.73398 2.20971,-8.0102 0.41432,-8.1483 v -8.01019 l -2.90024,-8.286411 -4.83374,-10.081796 -5.38617,-6.629127 -4.1432,-4.28131 -5.10995,-3.45267 -2.76214,-1.242961 v -9.115049 z"
       id="path1511"
       inkscape:connector-curvature="0" />
    <path
       style="fill:none;stroke:#000000;stroke-width:1px;stroke-linecap:butt;stroke-linejoin:miter;stroke-opacity:1"
       d="m 292.09587,69.783255 0.41432,3.728883 -5.52427,2.071602 -5.24806,2.485922 -3.45267,2.485923 -4.1432,4.28131 -2.62403,5.109952 -3.03835,5.386165 -2.0716,6.214808 -0.55243,7.18155 v 7.04345 l 1.93349,6.35291 2.76214,4.83374 4.97184,6.90534 5.80049,4.97184 5.66238,2.76214 5.93859,2.48592 7.18155,0.55243 5.80049,0.27621 6.62912,-1.38107 5.10996,-2.34781 6.90534,-4.41942 4.41941,-3.86699 4.0051,-6.0767 2.48592,-6.76723 1.38107,-6.90534 0.41432,-6.90534 -0.96675,-6.767235 -2.76213,-7.872087 -5.52427,-7.181553 -5.24806,-4.833738 -5.66238,-3.86699 -4.0051,-1.242961 -2.34781,-0.966748 0.1381,-3.176456 z"
       id="path1513"
       inkscape:connector-curvature="0" />
    <path
       style="fill:none;stroke:#000000;stroke-width:1px;stroke-linecap:butt;stroke-linejoin:miter;stroke-opacity:1"
       d="m 292.09587,69.783255 -9.52937,3.038349 -8.70073,6.214806 -4.41942,4.971845 -4.28131,7.457766 -2.90024,7.733981 c 0,0 -0.82864,7.319658 -0.82864,7.872088 0,0.55243 -0.41432,6.35291 -0.41432,7.31966 0,0.96675 1.38107,5.52427 1.51918,6.35291 0.1381,0.82864 3.86699,9.11505 3.86699,9.11505 l 5.38616,7.04345 4.83374,4.97184 6.0767,3.72888 7.45776,2.62403 10.91044,2.20971 c 0,0 12.1534,-0.96675 12.84393,-1.10485 0.69054,-0.13811 10.91044,-5.24806 10.91044,-5.24806 l 8.1483,-7.87209 4.83374,-8.1483 3.31456,-12.2915 v -11.60097 l -3.45267,-10.634227 -5.24806,-9.115048 -5.66238,-6.629126 -6.2148,-3.86699 -7.04345,-3.314564 -6.35291,-1.242961 h -7.73398 z"
       id="path1515"
       inkscape:connector-curvature="0" />
    <path
       style="fill:none;stroke:#000000;stroke-width:1px;stroke-linecap:butt;stroke-linejoin:miter;stroke-opacity:1"
       d="m 301.48713,80.003157 -8.1483,-0.276213 -7.31966,3.314563 -5.10995,4.005097 -4.28131,5.248058 -4.28131,7.181553 -1.24296,7.595875 c 0,0 0.27621,8.42451 0.82864,9.39126 0.55242,0.96675 4.83373,10.49612 4.83373,10.49612 0,0 5.52428,4.55752 6.21481,4.97184 0.69053,0.41432 10.35801,4.83374 10.91044,4.83374 0.55242,0 7.31966,0.41432 9.39126,0.27621 2.0716,-0.1381 10.2199,-2.0716 10.2199,-2.0716 0,0 6.90534,-4.97184 7.45777,-5.52427 0.55243,-0.55243 5.52427,-8.70073 5.52427,-8.70073 0,0 2.90024,-6.2148 2.90024,-7.18155 0,-0.96675 0.27622,-8.70073 0.27622,-8.70073 l -2.20971,-7.31966 -3.03835,-6.352912 -6.35291,-6.352913 -7.31966,-3.314563 -5.9386,-1.242961 z"
       id="path1517"
       inkscape:connector-curvature="0" />
    <path
       style="fill:none;stroke:#000000;stroke-width:1px;stroke-linecap:butt;stroke-linejoin:miter;stroke-opacity:1"
       d="m 286.98592,105.00049 -2.34782,1.41458 -0.32504,1.9153 0.40058,2.01958 0.3541,0.96994 2.54169,0.66828 2.29208,-0.98903 0.58591,-2.68409 -0.67378,-2.1762 z"
       id="path1519"
       inkscape:connector-curvature="0"
       sodipodi:nodetypes="cccccccccc" />
    <path
       style="display:inline;fill:none;stroke:#000000;stroke-width:1px;stroke-linecap:butt;stroke-linejoin:miter;stroke-opacity:1"
       d="m 314.25789,106.07891 -2.34782,1.41458 -0.32504,1.9153 0.40058,2.01958 0.3541,0.96994 2.54169,0.66828 2.29208,-0.98903 0.58591,-2.68409 -0.67378,-2.1762 z"
       id="path1519-5"
       inkscape:connector-curvature="0"
       sodipodi:nodetypes="cccccccccc" />
    <path
       style="display:inline;fill:none;stroke:#000000;stroke-width:1px;stroke-linecap:butt;stroke-linejoin:miter;stroke-opacity:1"
       d="m 300.93058,120.0277 -2.34782,1.41458 -0.32504,1.9153 0.40058,2.01958 0.3541,0.96994 2.54169,0.66828 2.29208,-0.98903 0.58591,-2.68409 -0.67378,-2.1762 z"
       id="path1519-9"
       inkscape:connector-curvature="0"
       sodipodi:nodetypes="cccccccccc" />
    <path
       style="fill:#1f1a17;fill-opacity:1;stroke-width:0.13810679"
       d="m 302.78801,144.21008 c -1.21534,-0.0616 -3.88771,-0.24081 -5.93859,-0.39818 l -3.72888,-0.28613 -3.03835,-1.26927 c -1.6711,-0.69809 -4.26419,-1.87389 -5.76243,-2.61287 l -2.72408,-1.34361 -2.81995,-2.42301 -2.81996,-2.423 -2.4453,-3.39305 c -1.46578,-2.03387 -2.99369,-4.35123 -3.81429,-5.78508 -1.33261,-2.32849 -1.3946,-2.47596 -2.33322,-5.55 l -0.96423,-3.15795 -9.3e-4,-3.22004 c -5.7e-4,-1.96706 0.10935,-4.65405 0.28249,-6.90534 l 0.28341,-3.6853 0.97377,-2.969298 c 0.92209,-2.811709 1.06359,-3.130548 2.66623,-6.007645 0.93086,-1.671093 2.21325,-4.063793 2.84977,-5.317112 l 1.15729,-2.278762 2.07334,-2.122368 c 2.74885,-2.813862 4.40569,-4.00929 7.85718,-5.669014 1.40955,-0.677817 3.85437,-1.713445 5.43293,-2.301397 1.57856,-0.587951 2.92801,-1.120062 2.99876,-1.182468 0.0792,-0.06986 0.0624,-0.756698 -0.0438,-1.787017 -0.0949,-0.920453 -0.15275,-1.693179 -0.12865,-1.717169 0.0241,-0.02399 3.83485,0.07351 8.46834,0.216668 4.63348,0.143157 8.56002,0.262182 8.72565,0.264499 0.29562,0.0041 0.29969,0.03168 0.22211,1.502349 l -0.079,1.498135 1.02086,0.423817 c 1.57879,0.655448 1.99415,0.804175 3.9211,1.403997 1.77313,0.551947 1.83009,0.582685 4.59567,2.48011 2.31683,1.589549 3.24671,2.336493 5.38616,4.326525 2.36857,2.203147 2.7948,2.676344 5.07181,5.630599 1.36725,1.77392 2.59127,3.386205 2.72004,3.582855 0.12877,0.196649 0.83132,2.065522 1.56123,4.153052 l 1.3271,3.795506 0.47456,3.291318 0.47457,3.29132 -0.20832,3.40813 c -0.18006,2.94579 -0.29259,3.83903 -0.82955,6.58458 -0.56257,2.87654 -0.74122,3.50897 -1.89208,6.69818 l -1.27086,3.52172 -1.96872,2.99296 -1.96873,2.99296 -2.17892,1.91922 c -2.94188,2.59124 -7.79834,5.7261 -11.54546,7.45262 -2.47759,1.14157 -2.51332,1.15291 -5.78957,1.83787 -1.81313,0.37906 -3.46403,0.67997 -3.66866,0.66868 -0.20464,-0.0113 -1.36644,-0.071 -2.58178,-0.13259 z m 2.92558,-6.9653 c 1.04949,-0.19314 3.29887,-0.66519 4.99862,-1.04899 l 3.09047,-0.69782 3.58528,-2.62728 c 1.9719,-1.445 3.76626,-2.82186 3.98746,-3.05968 0.43262,-0.46513 1.601,-2.2615 4.08404,-6.27914 1.49874,-2.425 2.6041,-4.65859 3.80454,-7.68773 0.63099,-1.59223 0.71279,-2.34193 0.86642,-7.94114 l 0.089,-3.24551 -1.11068,-3.65983 c -1.00343,-3.306408 -1.26099,-3.976277 -2.66719,-6.936791 l -1.5565,-3.276961 -3.18878,-3.190767 -3.18878,-3.190767 -3.75175,-1.706623 -3.75175,-1.706624 -3.00316,-0.627537 c -3.57812,-0.747681 -4.61564,-0.853338 -10.37822,-1.056884 l -4.41112,-0.155809 -3.75276,1.696194 -3.75275,1.696195 -2.57661,2.017632 c -2.5237,1.976208 -2.62197,2.072841 -4.78631,4.706561 -1.97751,2.406365 -2.4378,3.073646 -4.38026,6.349989 l -2.17054,3.66106 -0.63652,3.864392 -0.63653,3.86439 0.15413,2.96929 c 0.16102,3.10224 0.35725,5.25718 0.55335,6.0767 0.0636,0.26586 1.07453,2.56534 2.24647,5.10995 1.17194,2.54462 2.28898,4.97496 2.48231,5.40075 0.31373,0.69098 0.58703,0.96668 2.54345,2.56574 4.26238,3.48382 3.94855,3.29386 9.71877,5.88284 5.28918,2.37314 5.01667,2.28729 7.69945,2.42531 1.27231,0.0655 3.56766,0.12825 5.10077,0.13954 2.44954,0.018 3.01879,-0.022 4.69563,-0.33065 z"
       id="path1566"
       inkscape:connector-curvature="0" />
    <path
       style="fill:#1f1a17;fill-opacity:1;stroke-width:0.13810679"
       d="m 286.44659,111.09959 c -0.4804,-0.12615 -0.93049,-0.33126 -1.00018,-0.4558 -0.26536,-0.47417 -0.55053,-2.25275 -0.46067,-2.87313 0.12902,-0.89078 0.21859,-1.01092 1.18097,-1.58421 l 0.86031,-0.51248 1.14241,0.44166 1.14242,0.44167 0.29304,0.88059 c 0.28849,0.86692 0.28928,0.898 0.0509,2.00119 l -0.24212,1.12059 -0.88707,0.398 c -1.00974,0.45304 -0.91886,0.44684 -2.08004,0.14192 z"
       id="path1568"
       inkscape:connector-curvature="0" />
    <path
       style="fill:#1f1a17;fill-opacity:1;stroke-width:0.13810679"
       d="m 313.79087,112.19094 c -0.48088,-0.13745 -0.93144,-0.30703 -1.00125,-0.37684 -0.0698,-0.0698 -0.23815,-0.65208 -0.37409,-1.29395 -0.34512,-1.62958 -0.19247,-2.51227 0.51019,-2.94998 1.45001,-0.90325 1.23641,-0.87255 2.54671,-0.36598 l 1.173,0.45349 0.24161,0.89256 c 0.21366,0.78934 0.22065,0.99915 0.0604,1.81446 -0.0997,0.50706 -0.21261,1.00635 -0.25097,1.10954 -0.0625,0.16817 -1.71704,1.00069 -1.94055,0.97645 -0.0499,-0.005 -0.48415,-0.1223 -0.96503,-0.25975 z"
       id="path1570"
       inkscape:connector-curvature="0" />
    <path
       style="fill:#1f1a17;fill-opacity:1;stroke-width:0.13810679"
       d="m 300.38204,126.12456 c -0.48774,-0.14234 -0.93667,-0.33848 -0.99762,-0.43587 -0.18367,-0.29351 -0.44876,-1.65494 -0.45128,-2.31773 -0.005,-1.30924 0.11594,-1.53898 1.11862,-2.12543 1.02077,-0.59702 0.96752,-0.59951 2.59814,0.12151 0.66281,0.29308 0.70043,0.33984 0.93687,1.1644 0.23463,0.81829 0.23502,0.91168 0.008,1.96756 l -0.23821,1.10851 -0.75916,0.33573 c -1.04691,0.463 -1.20571,0.47599 -2.21548,0.18132 z"
       id="path1572"
       inkscape:connector-curvature="0" />
    <path
       style="fill:#45413e;fill-opacity:1;stroke-width:0.13810679"
       d="m 296.51235,136.32627 c -2.88922,-0.1398 -2.55775,-0.0451 -6.91354,-1.97475 -5.89906,-2.6133 -6.26497,-2.82233 -9.45163,-5.39932 l -2.89157,-2.33835 -0.68448,-1.51786 c -0.37647,-0.83483 -1.43051,-3.13372 -2.3423,-5.10864 -0.9118,-1.97493 -1.73543,-3.8083 -1.83029,-4.07416 -0.19809,-0.55515 -0.42641,-2.89948 -0.61199,-6.28385 l -0.12875,-2.34782 0.61617,-3.7841 0.61617,-3.784097 2.11317,-3.542305 c 1.8169,-3.045665 2.40856,-3.90405 4.22005,-6.122452 2.04372,-2.502799 2.18164,-2.638755 4.60071,-4.535259 l 2.49383,-1.955114 3.60679,-1.639231 3.60678,-1.639232 3.86868,0.140254 c 5.41552,0.196333 6.91544,0.347708 10.19584,1.028984 l 2.87448,0.596975 3.64645,1.638298 3.64646,1.638299 3.0948,3.107403 3.0948,3.107403 1.46999,3.095063 c 1.30348,2.744474 1.59475,3.505288 2.57139,6.716641 l 1.1014,3.62158 -0.15306,4.40095 c -0.17544,5.04479 -0.0514,4.48595 -1.95765,8.82038 -0.76034,1.72885 -1.5112,3.07549 -3.45054,6.18833 -1.36331,2.18824 -2.64258,4.17382 -2.84284,4.41239 -0.32739,0.39004 -2.97391,2.41128 -6.27319,4.79106 l -1.21345,0.87527 -2.92975,0.65314 c -5.3228,1.18663 -6.6223,1.38155 -9.05424,1.35816 -1.18905,-0.0114 -3.30796,-0.0763 -4.70869,-0.14404 z m 6.35542,-9.23651 c 0.71572,-0.30939 1.3441,-0.60459 1.3964,-0.65601 0.0523,-0.0514 0.24794,-0.77416 0.43475,-1.6061 l 0.33966,-1.5126 -0.43475,-1.31341 -0.43475,-1.31341 -1.64092,-0.65775 -1.64092,-0.65774 -1.42171,0.85251 -1.42172,0.8525 -0.17132,1.15152 c -0.13461,0.90481 -0.13568,1.35017 -0.005,2.07882 0.18094,1.00884 0.54142,2.23975 0.70999,2.42435 0.0582,0.0638 0.74978,0.29245 1.53673,0.50815 0.78695,0.21569 1.43565,0.39656 1.44154,0.40193 0.006,0.005 0.59629,-0.24338 1.31201,-0.55276 z m 13.36366,-13.96823 c 0.7337,-0.32008 1.37222,-0.63643 1.41891,-0.703 0.0467,-0.0666 0.22426,-0.78508 0.39457,-1.59669 l 0.30966,-1.47566 -0.39569,-1.28925 -0.39569,-1.28924 -1.68974,-0.67398 -1.68974,-0.67397 -1.37768,0.84299 c -0.75773,0.46364 -1.40609,0.94469 -1.44081,1.069 -0.0347,0.1243 -0.13259,0.66104 -0.2175,1.19275 -0.16529,1.03507 0.005,2.27402 0.5093,3.6966 0.20044,0.56587 0.3019,0.67595 0.72297,0.78441 0.43223,0.11134 2.3467,0.63984 2.47037,0.68197 0.0259,0.009 0.64736,-0.24586 1.38107,-0.56593 z m -27.19499,-1.10985 1.36063,-0.58696 0.34903,-1.57337 0.34903,-1.57338 -0.43742,-1.31221 -0.43742,-1.31221 -1.64475,-0.65083 -1.64476,-0.65083 -1.41709,0.84333 -1.41709,0.84334 -0.17211,1.14429 c -0.13539,0.90023 -0.13663,1.34207 -0.006,2.0716 0.18921,1.05492 0.54387,2.2433 0.72927,2.44362 0.10008,0.10813 2.48404,0.8325 2.919,0.88694 0.0599,0.008 0.72112,-0.25051 1.46946,-0.57333 z"
       id="path1574"
       inkscape:connector-curvature="0" />
    <path
       style="fill:#c9bfb4;fill-opacity:1;stroke-width:0.13810679"
       d="m 295.72269,148.78011 c -5.01551,-1.03018 -5.51295,-1.16021 -8.76978,-2.29239 -1.89897,-0.66015 -3.68278,-1.31417 -3.96403,-1.45339 -0.28125,-0.13922 -1.74393,-1.01468 -3.2504,-1.94547 l -2.73903,-1.69233 -2.42166,-2.48593 c -1.88481,-1.93483 -3.0047,-3.25133 -5.05168,-5.93859 l -2.63003,-3.45267 -1.24751,-2.83119 c -2.39758,-5.44122 -2.49193,-5.7112 -3.71618,-10.63422 l -0.36062,-1.45012 0.2373,-4.07415 c 0.13052,-2.24079 0.41777,-5.69 0.63834,-7.66493 l 0.40104,-3.590777 1.43438,-3.797937 c 1.38819,-3.675671 1.50276,-3.916587 3.55866,-7.48354 2.10018,-3.643778 2.14842,-3.712739 4.25097,-6.076699 l 2.12668,-2.391096 4.18459,-2.995156 c 2.30152,-1.647335 4.29655,-3.055016 4.43339,-3.12818 0.13684,-0.07316 2.13698,-0.735562 4.44474,-1.471997 3.04747,-0.97248 4.22389,-1.293753 4.29805,-1.173765 0.15526,0.251211 0.30646,2.233971 0.17979,2.357642 -0.0611,0.05969 -1.1366,0.488604 -2.38992,0.953146 -1.25332,0.464542 -3.5528,1.441559 -5.10995,2.171147 -3.83387,1.796322 -5.72047,3.148663 -8.57247,6.144863 l -2.01239,2.114145 -1.36113,2.624029 c -0.74863,1.443216 -2.04355,3.835916 -2.87762,5.317112 -1.40033,2.486815 -1.5947,2.925792 -2.53772,5.731432 l -1.02125,3.038351 -0.26544,3.24551 c -0.18289,2.23615 -0.26655,4.54956 -0.26902,7.4386 l -0.004,4.1931 0.97254,3.1743 c 0.95625,3.12109 0.99666,3.21632 2.4112,5.68154 0.89471,1.55928 2.37245,3.80013 3.90845,5.92679 l 2.46981,3.41954 2.95656,2.52743 2.95656,2.52743 2.62403,1.28455 c 1.44322,0.70651 4.07401,1.89664 5.8462,2.64473 l 3.22217,1.36017 3.54506,0.27605 c 1.94979,0.15183 4.9434,0.34473 6.65247,0.42868 l 3.1074,0.15262 3.37749,-0.70942 3.37749,-0.70943 2.63016,-1.20921 c 3.84929,-1.76972 8.52647,-4.78684 11.69377,-7.54334 l 2.29639,-1.99854 2.04102,-3.07351 2.04103,-3.07351 1.22669,-3.31457 c 1.13831,-3.07574 1.28013,-3.57826 1.96839,-6.97439 0.68266,-3.36853 0.7588,-3.93844 0.95657,-7.16022 l 0.21488,-3.50038 -0.48345,-3.40496 -0.48345,-3.40495 -1.40901,-4.045306 -1.409,-4.045305 -2.80258,-3.648318 c -2.69003,-3.501793 -2.90982,-3.747007 -5.4725,-6.105544 -2.19952,-2.024302 -3.16598,-2.796117 -5.48547,-4.380732 -1.54856,-1.057928 -2.97093,-1.977901 -3.16082,-2.044385 -0.1899,-0.06648 -1.27749,-0.421499 -2.41687,-0.788923 -1.13938,-0.367423 -2.36681,-0.796962 -2.72761,-0.954529 -0.65175,-0.284624 -0.656,-0.290783 -0.65449,-0.947402 8.3e-4,-0.363503 0.0386,-0.884983 0.0839,-1.158843 l 0.0824,-0.497928 0.91739,0.191015 c 1.61745,0.336777 7.37036,3.161869 10.89765,5.351527 l 3.05846,1.898617 2.80285,3.291477 2.80285,3.291476 2.57249,4.465471 2.57249,4.46547 1.74335,5.347411 1.74334,5.347411 v 5.51505 5.51506 l -1.66898,6.17587 -1.66899,6.17588 -2.37064,3.99981 -2.37064,3.99982 -4.00509,3.86838 -4.0051,3.86838 -2.83119,1.41849 c -1.55715,0.78017 -3.95449,1.95196 -5.32742,2.60397 -2.87107,1.3635 -2.02535,1.2044 -9.65717,1.81667 -2.35472,0.18891 -4.59205,0.37197 -4.97184,0.4068 -0.51061,0.0468 -2.07593,-0.22123 -6.00765,-1.02879 z"
       id="path1576"
       inkscape:connector-curvature="0" />
    <path
       style="fill:#756e65;fill-opacity:1;stroke-width:0.13810679"
       d="m 295.21525,153.60542 -5.82456,-0.82036 -5.86447,-2.11238 -5.86447,-2.11237 -4.46947,-3.57443 -4.46946,-3.57443 -2.76214,-3.16224 -2.76214,-3.16223 -2.05634,-3.61246 -2.05635,-3.61246 -1.2938,-4.28131 -1.2938,-4.28131 -0.34421,-3.77222 c -0.29326,-3.21389 -0.34421,-4.53427 -0.34421,-8.92087 v -5.14865 l 0.41662,-2.05862 c 0.26515,-1.310186 0.94965,-3.713314 1.88275,-6.609962 l 1.46613,-4.551338 3.19267,-4.787148 3.19268,-4.787147 4.12602,-3.919765 4.12602,-3.919767 4.71282,-2.604829 c 2.59204,-1.432656 4.73129,-2.621594 4.75388,-2.642084 0.0226,-0.02049 -0.0297,-1.241017 -0.11623,-2.712282 -0.24796,-4.216796 -0.82444,-4.371308 4.62833,1.240522 2.58021,2.655468 4.71396,4.896146 4.74167,4.979284 0.0321,0.0963 -0.20511,0.151161 -0.65353,0.151161 -0.38716,0 -0.81183,0.06212 -0.94373,0.138053 -0.1319,0.07593 -2.22855,0.768311 -4.65923,1.538627 l -4.41942,1.400574 -4.48847,3.222488 -4.48847,3.222487 -2.14066,2.433994 c -2.10972,2.39882 -2.17201,2.488432 -4.31046,6.201106 -2.13113,3.699963 -2.19599,3.836964 -3.63877,7.685898 l -1.46896,3.918787 -0.39616,3.590781 c -0.40709,3.68985 -0.81987,9.4435 -0.81987,11.42804 0,0.92007 0.14784,1.69191 0.82946,4.3305 0.84141,3.25715 1.26652,4.37873 3.98994,10.52675 0.87682,1.97939 5.07026,7.4026 8.3746,10.83054 l 2.49578,2.58913 3.10007,1.90616 3.10008,1.90616 3.79793,1.33781 c 3.75182,1.32157 3.86502,1.35141 9.32221,2.45716 l 5.52428,1.11934 6.07669,-0.49974 c 3.34219,-0.27486 6.3769,-0.56061 6.74381,-0.63499 0.69863,-0.14163 3.73984,-1.5462 8.51699,-3.93355 l 2.83119,-1.41486 4.14321,-4.00622 4.1432,-4.00623 2.43091,-4.12407 2.4309,-4.12407 1.67777,-6.22375 1.67778,-6.22375 v -5.86019 -5.8602 l -1.74219,-5.386565 -1.74218,-5.386564 -2.64271,-4.602741 -2.64271,-4.60274 -2.90897,-3.407454 -2.90897,-3.407453 -3.18826,-1.973589 c -2.43985,-1.510314 -4.01459,-2.361769 -6.70852,-3.627271 l -3.52027,-1.653683 -2.32874,-0.465481 -2.32874,-0.46548 1.59711,-0.01592 1.59712,-0.01593 5.34068,-5.258149 5.34068,-5.258149 0.0366,4.088953 0.0366,4.088954 1.48418,0.677761 c 0.92023,0.420229 2.4375,1.323612 3.99306,2.377481 2.35344,1.594413 2.64372,1.84091 4.68539,3.978631 1.19708,1.253401 3.31553,3.687941 4.70767,5.410088 l 2.53115,3.131175 2.39571,5.011477 c 2.12665,4.448647 2.55707,5.474616 3.83246,9.135288 l 1.43676,4.123811 10e-4,3.3396 c 6.9e-4,1.83679 -0.0962,5.32834 -0.21531,7.75902 l -0.21658,4.41942 -1.10686,4.05456 -1.10686,4.05455 -2.07432,3.74848 c -1.14087,2.06166 -3.32404,5.84448 -4.85147,8.40627 l -2.77715,4.65778 -4.62443,3.33529 -4.62443,3.33529 -4.9887,2.60197 -4.9887,2.60198 -3.58271,0.35258 c -3.50269,0.34471 -10.01109,0.97852 -11.24763,1.09534 -0.34446,0.0325 -3.21774,-0.30696 -6.44604,-0.76165 z"
       id="path1578"
       inkscape:connector-curvature="0" />
    <path
       style="fill:#efe3d0;fill-opacity:1;stroke-width:0.13810679"
       d="m 283.23014,56.914558 c -0.004,-0.132928 -0.14487,-2.434381 -0.31243,-5.11434 l -0.30465,-4.872652 4.75385,-2.504046 4.75386,-2.504047 10.09074,0.184097 10.09073,0.184097 5.11353,2.990617 5.11353,2.990617 0.0871,1.301743 c 0.0479,0.715958 0.12411,2.585858 0.16934,4.155334 l 0.0822,2.853592 -1.13609,0.07609 c -0.99092,0.06637 -34.06241,0.513499 -37.28555,0.504106 -1.05446,-0.0031 -1.20942,-0.03431 -1.21621,-0.245208 z"
       id="path1584"
       inkscape:connector-curvature="0" />
    <path
       style="fill:#efe3d0;fill-opacity:1;stroke-width:0.13810679"
       d="m 288.87157,63.123572 -4.65531,-4.793419 0.58116,-0.02842 c 1.39546,-0.06824 36.81709,-0.483669 36.96743,-0.433558 0.0919,0.03062 -2.13097,2.306737 -4.93963,5.058036 l -5.10664,5.002364 -9.09585,-0.0058 -9.09586,-0.0058 z"
       id="path1586"
       inkscape:connector-curvature="0" />
  </g>
</svg>
