<?xml version="1.0" encoding="UTF-8" standalone="no"?>
<!-- Created with Inkscape (http://www.inkscape.org/) -->

<svg
   xmlns:dc="http://purl.org/dc/elements/1.1/"
   xmlns:cc="http://creativecommons.org/ns#"
   xmlns:rdf="http://www.w3.org/1999/02/22-rdf-syntax-ns#"
   xmlns:svg="http://www.w3.org/2000/svg"
   xmlns="http://www.w3.org/2000/svg"
   xmlns:sodipodi="http://sodipodi.sourceforge.net/DTD/sodipodi-0.dtd"
   xmlns:inkscape="http://www.inkscape.org/namespaces/inkscape"
   version="1.1"
   id="svg2"
   width="1656"
   height="213"
   viewBox="0 0 1656 213"
   sodipodi:docname="interface_MIC_2.svg"
   inkscape:version="0.92.2 2405546, 2018-03-11"
   inkscape:export-filename="/home/jeroen/svg/image/kd_h700.png.png"
   inkscape:export-xdpi="96"
   inkscape:export-ydpi="96">
  <metadata
     id="metadata14">
    <rdf:RDF>
      <cc:Work
         rdf:about="">
        <dc:format>image/svg+xml</dc:format>
        <dc:type
           rdf:resource="http://purl.org/dc/dcmitype/StillImage" />
      </cc:Work>
    </rdf:RDF>
  </metadata>
  <defs
     id="defs12" />
  <sodipodi:namedview
     pagecolor="#ffffff"
     bordercolor="#666666"
     borderopacity="1"
     objecttolerance="10"
     gridtolerance="10"
     guidetolerance="10"
     inkscape:pageopacity="0"
     inkscape:pageshadow="2"
     inkscape:window-width="1680"
     inkscape:window-height="1050"
     id="namedview10"
     showgrid="false"
     inkscape:zoom="2.1352657"
     inkscape:cx="286.46725"
     inkscape:cy="51.915892"
     inkscape:window-x="0"
     inkscape:window-y="900"
     inkscape:window-maximized="0"
     inkscape:current-layer="layer4" />
  <g
     inkscape:groupmode="layer"
     id="layer4"
     inkscape:label="接口"
     style="display:inline;opacity:1">
    <path
       style="fill:none;stroke:#000000;stroke-width:1px;stroke-linecap:butt;stroke-linejoin:miter;stroke-opacity:1"
       d="m 184.17969,106.75 0.39062,48.24219 57.61719,-0.58594 v -47.85156 z"
       id="path1481"
       inkscape:connector-curvature="0" />
    <path
       style="fill:none;stroke:#000000;stroke-width:1px;stroke-linecap:butt;stroke-linejoin:miter;stroke-opacity:1"
       d="m 200.78125,112.02344 -0.39062,8.00781 -7.61719,-0.19531 v 29.10156 l 41.40625,0.19531 -0.58594,-30.07812 h -7.8125 l -0.19531,-7.03125 z"
       id="path1483"
       inkscape:connector-curvature="0" />
    <path
       style="fill:#1f1a17;fill-opacity:1;stroke-width:0.13810679"
       d="m 209.71498,148.45122 c -8.96313,-0.0459 -16.31214,-0.0947 -16.33113,-0.10846 -0.019,-0.0137 -0.0345,-6.30345 -0.0345,-13.97712 v -13.95213 l 3.77766,0.0939 3.77765,0.0939 0.0873,-1.43706 c 0.048,-0.79038 0.12154,-2.27605 0.16337,-3.30149 0.0418,-1.02544 0.10935,-2.19072 0.15006,-2.5895 l 0.074,-0.72507 h 11.78093 11.78093 l 0.0863,0.43159 c 0.0475,0.23737 0.0867,1.30942 0.0871,2.38234 4.2e-4,1.07292 0.0408,2.46348 0.0895,3.09014 l 0.0887,1.13938 h 3.83413 3.83412 l 0.0768,1.13938 c 0.0763,1.13204 0.50944,23.94102 0.5035,26.51651 l -0.003,1.34654 -3.76341,-0.0296 c -2.06987,-0.0163 -11.09688,-0.0672 -20.06001,-0.11311 z"
       id="path1560"
       inkscape:connector-curvature="0" />
    <path
       style="fill:#d0c8b8;fill-opacity:1;stroke-width:0.13810679"
       d="m 185.14494,154.08372 c -0.0734,-0.37184 -0.40665,-46.64319 -0.33643,-46.71341 0.0268,-0.0268 12.83537,-0.0942 28.46347,-0.14977 l 28.41472,-0.10103 v 23.34492 23.34492 l -6.38744,0.0909 c -7.6235,0.10852 -45.11602,0.49419 -48.04163,0.49419 -2.01707,0 -2.05237,-0.005 -2.11269,-0.31074 z m 49.58721,-6.62912 c -0.0474,-1.23433 -0.18398,-8.05508 -0.30358,-15.15722 -0.1196,-7.10215 -0.24733,-13.11497 -0.28385,-13.36184 l -0.0664,-0.44884 h -3.84005 -3.84005 l -0.0897,-1.26418 c -0.0494,-0.6953 -0.0906,-2.14024 -0.0916,-3.21098 -10e-4,-1.07075 -0.0394,-2.08664 -0.0852,-2.25755 l -0.0833,-0.31074 h -12.8825 -12.88251 l -0.0804,1.07033 c -0.0442,0.58868 -0.11405,1.84718 -0.1552,2.79666 -0.0411,0.94949 -0.11129,2.27045 -0.15586,2.93547 l -0.0811,1.20913 -3.78322,-0.0919 -3.78322,-0.0919 v 15.14417 15.14418 l 13.77615,0.0359 c 7.57689,0.0197 17.156,0.0511 21.28691,0.0697 l 7.51076,0.0338 z"
       id="path1558"
       inkscape:connector-curvature="0" />
  </g>
</svg>
